HIERARCHY
ROOT RootJoint
{
    OFFSET   0.000000   0.000000   0.000000
    CHANNELS 6 Xposition Yposition Zposition Xrotation Yrotation Zrotation
    JOINT pelvis_lowerback
    {
        OFFSET   0.000000   0.093605   0.000000
        CHANNELS 3 Xrotation Yrotation Zrotation
        JOINT lowerback_torso
        {
            OFFSET   0.000000   0.100000   0.000000
            CHANNELS 3 Xrotation Yrotation Zrotation
            JOINT torso_head
            {
                OFFSET   0.000000   0.282350   0.000000
                CHANNELS 3 Xrotation Yrotation Zrotation
                End Site
                {
                    OFFSET   0.000000   0.192650   0.000000
                }
            }
            JOINT rTorso_Clavicle
            {
                OFFSET  -0.001000   0.157500   0.000000
                CHANNELS 3 Xrotation Yrotation Zrotation
                JOINT rShoulder
                {
                    OFFSET  -0.117647   0.000000   0.000000
                    CHANNELS 3 Xrotation Yrotation Zrotation
                    JOINT rElbow
                    {
                        OFFSET  -0.245000   0.000000   0.000000
                        CHANNELS 3 Xrotation Yrotation Zrotation
                        JOINT rWrist
                        {
                            OFFSET  -0.240000   0.000000   0.000000
                            CHANNELS 3 Xrotation Yrotation Zrotation
                            End Site
                            {
                                OFFSET  -0.116353  -0.002500   0.000000
                            }
                        }
                    }
                }
            }
            JOINT lTorso_Clavicle
            {
                OFFSET   0.001000   0.157500   0.000000
                CHANNELS 3 Xrotation Yrotation Zrotation
                JOINT lShoulder
                {
                    OFFSET   0.117647   0.000000   0.000000
                    CHANNELS 3 Xrotation Yrotation Zrotation
                    JOINT lElbow
                    {
                        OFFSET   0.245000   0.000000   0.000000
                        CHANNELS 3 Xrotation Yrotation Zrotation
                        JOINT lWrist
                        {
                            OFFSET   0.240000   0.000000   0.000000
                            CHANNELS 3 Xrotation Yrotation Zrotation
                            End Site
                            {
                                OFFSET   0.116353  -0.002500   0.000000
                            }
                        }
                    }
                }
            }
        }
    }
    JOINT rHip
    {
        OFFSET  -0.100000  -0.051395   0.000000
        CHANNELS 3 Xrotation Yrotation Zrotation
        JOINT rKnee
        {
            OFFSET   0.000000  -0.410000   0.000000
            CHANNELS 3 Xrotation Yrotation Zrotation
            JOINT rAnkle
            {
                OFFSET   0.000000  -0.390000   0.000000
                CHANNELS 3 Xrotation Yrotation Zrotation
                JOINT rToeJoint
                {
                    OFFSET   0.000000  -0.050000   0.130000
                    CHANNELS 3 Xrotation Yrotation Zrotation
                    End Site
                    {
                        OFFSET  -0.010000   0.002000   0.060000
                    }
                }
            }
        }
    }
    JOINT lHip
    {
        OFFSET   0.100000  -0.051395   0.000000
        CHANNELS 3 Xrotation Yrotation Zrotation
        JOINT lKnee
        {
            OFFSET   0.000000  -0.410000   0.000000
            CHANNELS 3 Xrotation Yrotation Zrotation
            JOINT lAnkle
            {
                OFFSET   0.000000  -0.390000   0.000000
                CHANNELS 3 Xrotation Yrotation Zrotation
                JOINT lToeJoint
                {
                    OFFSET   0.000000  -0.050000   0.130000
                    CHANNELS 3 Xrotation Yrotation Zrotation
                    End Site
                    {
                        OFFSET   0.010000   0.002000   0.060000
                    }
                }
            }
        }
    }
}
MOTION
Frames: 14
Frame Time:   0.008333
 -1.724432   0.925608   4.442701  -6.893317  60.964766   8.727321   8.743443   4.488748   1.039854  12.555564   0.109877   3.071201   6.136410  -0.360301   0.701951  10.127041   6.955737  18.119934  10.994564  -2.983115  17.409540   0.000020  17.265104  -0.000035  17.337172  -3.318790 -45.461823   7.332367  -5.268089 -13.147662  14.181986   3.723246   0.596721  -0.000049 -39.187224   0.000006  14.081889  -0.844806  42.076464   1.306266   8.293797   2.660249   2.602751  -0.000739  -0.000350  -3.417924   4.631644  -4.890780  -8.990284   0.000017   0.001674 -26.183538 -10.746226  -0.303693  34.154433  -0.001817   0.000961 -13.299006  -0.461640   1.307428  -6.968374  -0.000045   0.000002
 -1.725160   0.926024   4.441972  -7.191809  60.921692   8.978533   8.756629   4.548035   0.971356  12.554548   0.025046   3.107616   6.136846  -0.352837   0.689308  10.105900   6.906677  18.035290  11.177321  -2.831801  17.591905  -0.000019  17.189123  -0.000019  17.515655  -3.161697 -45.298849   7.266839  -5.220760 -13.050733  14.143931   3.506484   0.539035   0.000046 -39.139803   0.000135  14.079359  -0.880050  41.934585   1.345824   8.361152   2.664305   2.844862  -0.000543  -0.000170  -4.340994   4.729706  -4.905759  -8.682739   0.000252   0.001600 -25.967385 -10.655383  -0.446994  33.726383  -0.002157   0.000877 -13.242945  -0.285267   1.356312  -7.005575  -0.000073  -0.000067
 -1.725783   0.926428   4.441196  -7.508031  60.894513   9.268882   8.763376   4.601413   0.904795  12.541252  -0.064513   3.128114   6.134403  -0.342768   0.671669  10.088126   6.861680  17.931151  11.348776  -2.693308  17.746006  -0.000009  17.117448  -0.000021  17.538027  -3.162072 -45.087272   7.194840  -5.200302 -12.946966  14.102543   3.288989   0.499627   0.000133 -39.097976   0.000238  14.077306  -0.908264  41.821157   1.393422   8.424939   2.640065   3.094869  -0.000371   0.000009  -5.198485   4.823282  -4.924537  -8.384596   0.000435   0.001575 -25.782612 -10.566185  -0.605377  33.293847  -0.002380   0.000749 -13.191742  -0.120531   1.401645  -7.035880  -0.000085  -0.000109
 -1.726299   0.926806   4.440405  -7.844544  60.872412   9.586646   8.763324   4.648560   0.841452  12.520241  -0.153620   3.141475   6.130688  -0.332899   0.654641  10.071002   6.819431  17.815087  11.507195  -2.566969  17.875843   0.000027  17.048340  -0.000043  17.561643  -3.160989 -44.899397   7.122846  -5.190127 -12.839886  14.060484   3.081993   0.471873   0.000212 -39.057995   0.000325  14.324641  -1.211451  41.796965   1.456147   8.486044   2.602222   3.342648  -0.000224   0.000159  -6.000867   4.911968  -4.942030  -8.109740   0.000557   0.001541 -25.624379 -10.482169  -0.758096  32.882122  -0.002448   0.000600 -13.144613   0.033174   1.443707  -7.065038  -0.000088  -0.000139
 -1.726709   0.927158   4.439617  -8.198619  60.845706   9.925948   8.756361   4.690736   0.779930  12.493757  -0.240776   3.148874   6.126406  -0.323382   0.638472  10.053621   6.782067  17.693143  11.653635  -2.449115  17.986306   0.000074  16.983899  -0.000076  17.585195  -3.159628 -44.735699   7.054974  -5.189631 -12.734418  14.022033   2.880687   0.451741   0.000250 -39.029621   0.000360  14.429874  -1.043129  41.678162   1.534133   8.544218   2.554439   3.586852  -0.000101   0.000265  -6.751452   4.995738  -4.957894  -7.857447   0.000634   0.001476 -25.487315 -10.404360  -0.897797  32.494270  -0.002384   0.000466 -13.100921   0.176721   1.482819  -7.092430  -0.000085  -0.000157
 -1.727014   0.927483   4.438836  -8.566938  60.810906  10.281621   8.743021   4.729901   0.719931  12.462399  -0.323359   3.151510   6.121290  -0.314506   0.623488  10.036504   6.748210  17.569873  11.789279  -2.339214  18.081810   0.000121  16.923886  -0.000115  17.608456  -3.157945 -44.591673   6.989717  -5.192232 -12.632279  13.984557   2.692392   0.435956   0.000288 -39.000212   0.000396  14.356854  -1.043821  41.598652   1.626250   8.598995   2.498942   3.827255   0.000002   0.000327  -7.452993   5.074615  -4.972172  -7.625971   0.000678   0.001384 -25.368705 -10.333395  -1.021954  32.129976  -0.002224   0.000360 -13.060328   0.310816   1.519242  -7.117940  -0.000077  -0.000164
 -1.727215   0.927784   4.438062  -8.947628  60.766914  10.651027   8.723665   4.767049   0.661716  12.427157  -0.400510   3.150332   6.115613  -0.306248   0.609376  10.019954   6.717193  17.448076  11.915154  -2.236830  18.165506   0.000162  16.867934  -0.000154  17.631391  -3.155935 -44.463426   6.928069  -5.195807 -12.534335  13.948805   2.516286   0.423326   0.000315 -38.972941   0.000420  14.298528  -1.044956  41.531995   1.731655   8.650272   2.436701   4.064115   0.000088   0.000353  -8.108433   5.148763  -4.984999  -7.413571   0.000699   0.001273 -25.266478 -10.269109  -1.130490  31.788013  -0.002003   0.000280 -13.022572   0.436090   1.553187  -7.141519  -0.000066  -0.000163
 -1.727502   0.927968   4.437251  -9.149628  60.755665  10.864828   8.597788   4.791436   0.598546  12.404167  -0.440909   3.157557   6.137050  -0.280407   0.556553  10.129079   6.713540  17.275923  12.172734  -2.043383  18.292698   0.000159  16.813687  -0.000041  17.675519  -3.168932 -44.332053   6.882747  -5.269937 -12.440790  13.885948   2.268605   0.400999   0.000717 -38.819687   0.000927  14.252670  -1.037272  41.512227   1.707471   8.679659   2.386549   4.320542   0.000150   0.000373  -8.551390   5.170233  -5.107011  -7.150647   0.000960   0.001157 -25.280716 -10.187088  -1.238376  31.426036  -0.001858   0.000108 -12.846070   0.600573   1.583856  -7.148083  -0.000054  -0.000143
 -1.727804   0.928098   4.436444  -9.358656  60.761018  11.072710   8.485920   4.807807   0.543888  12.382673  -0.484905   3.164656   6.156242  -0.254167   0.505005  10.228939   6.721997  17.118373  12.413648  -1.852203  18.413012   0.000151  16.767234   0.000037  17.730487  -3.176915 -44.168933   6.833958  -5.366010 -12.361025  13.826386   2.018837   0.380773   0.000964 -38.678266   0.001252  14.215990  -1.031780  41.493655   1.677972   8.705068   2.352167   4.577718   0.000197   0.000418  -8.950365   5.191220  -5.225785  -6.893687   0.001133   0.001089 -25.304401 -10.109634  -1.337341  31.074442  -0.001741  -0.000079 -12.680376   0.754871   1.612121  -7.143815  -0.000043  -0.000106
 -1.728096   0.928192   4.435649  -9.573958  60.772582  11.275703   8.385564   4.818995   0.493273  12.364750  -0.531203   3.171610   6.174399  -0.229412   0.456769  10.317521   6.738204  16.976014  12.636185  -1.665936  18.525647   0.000143  16.726565   0.000085  17.786739  -3.181462 -44.002096   6.785989  -5.470638 -12.293010  13.771332   1.774065   0.360477   0.001088 -38.550246   0.001431  14.186563  -1.029030  41.472129   1.651251   8.728217   2.329312   4.827853   0.000231   0.000460  -9.318987   5.211646  -5.337201  -6.656500   0.001218   0.001029 -25.331745 -10.037148  -1.427849  30.741389  -0.001632  -0.000239 -12.526008   0.899073   1.638071  -7.139862  -0.000034  -0.000077
 -1.728364   0.928258   4.434867  -9.790139  60.783759  11.470776   8.294192   4.827386   0.444701  12.349701  -0.577408   3.177277   6.191639  -0.206273   0.411684  10.396900   6.758997  16.847165  12.842076  -1.486415  18.631269   0.000135  16.690583   0.000113  17.842599  -3.183957 -43.838141   6.740273  -5.577409 -12.235106  13.720672   1.538214   0.339377   0.001128 -38.433416   0.001510  14.162899  -1.028873  41.446655   1.628116   8.749241   2.314789   5.068535   0.000256   0.000484  -9.661307   5.231411  -5.441278  -6.438689   0.001245   0.000962 -25.360852  -9.969485  -1.510763  30.428380  -0.001527  -0.000354 -12.382101   1.033807   1.661897  -7.136433  -0.000026  -0.000055
 -1.728600   0.928300   4.434098 -10.003504  60.791024  11.655832   8.210189   4.834399   0.397352  12.336874  -0.622122   3.180998   6.207904  -0.184689   0.369472  10.468824   6.782101  16.730041  13.032942  -1.314926  18.730308   0.000126  16.658373   0.000125  17.897564  -3.185013 -43.678724   6.697416  -5.682604 -12.185780  13.674086   1.313421   0.317366   0.001112 -38.326057   0.001521  14.143831  -1.030902  41.417580   1.608448   8.768178   2.306535   5.299004   0.000273   0.000484  -9.979892   5.250447  -5.538368  -6.238831   0.001231   0.000884 -25.390549  -9.906467  -1.586912  30.135190  -0.001425  -0.000423 -12.247896   1.159668   1.683781  -7.133451  -0.000020  -0.000038
 -1.728798   0.928323   4.433338 -10.211670  60.792674  11.829570   8.132464   4.840806   0.350902  12.325830  -0.664649   3.182555   6.223177  -0.164568   0.329907  10.534614   6.805949  16.623050  13.210172  -1.152232  18.823069   0.000118  16.629218   0.000128  17.951376  -3.185012 -43.524466   6.657642  -5.784049 -12.143650  13.631227   1.100732   0.294605   0.001062 -38.226895   0.001488  14.128437  -1.034681  41.385626   1.591952   8.785103   2.303180   5.519124   0.000285   0.000464 -10.276749   5.268713  -5.628872  -6.055493   0.001192   0.000799 -25.420075  -9.847851  -1.657043  29.861054  -0.001327  -0.000453 -12.122711   1.277220   1.703892  -7.130847  -0.000016  -0.000026
 -1.728872   0.928669   4.432474 -10.080181  61.004607  11.826160   7.836229   4.757278   0.187477  12.334682  -0.685100   3.205243   6.279465  -0.069011   0.297036  10.670098   6.744635  16.437295  13.494629  -0.976282  19.046684   0.000095  16.656455   0.000034  18.022121  -3.158375 -43.261492   6.549863  -5.972313 -12.027969  13.447378   0.752262   0.189087   0.001251 -38.083985   0.001915  14.112947  -1.074204  41.212589   1.854691   8.835693   2.115447   4.726232  -0.000109  -0.001225  -9.563275   5.196642  -5.810368  -5.571296   0.001572   0.001503 -25.674035  -9.655863  -1.945064  29.690716  -0.001398  -0.000712 -11.986776   1.422941   1.773488  -7.179810  -0.000036  -0.000207
